<svg width="45" height="45" viewBox="0 0 45 45" fill="none" xmlns="http://www.w3.org/2000/svg">
<path d="M25.1389 15.8796C19.6852 28.9074 10 29.1667 5 29.1667C1.66667 29.1667 0 29.1667 0 29.1667V34.3704C0 35.1759 0.657407 35.8333 1.46296 35.8333H43.537C44.3426 35.8333 45 35.1759 45 34.3704V0C45 0 44.1667 0 40.8333 0C34.9537 0 31.0648 1.71296 25.1389 15.8796Z" transform="translate(0 9.16663)" fill="white"/>
<path d="M43.537 0H1.46296C0.657407 0 0 0.657407 0 1.46296V35.8333C0 35.8333 0.833333 35.8333 4.16667 35.8333C10.0463 35.8333 14.1204 34.1204 20.0463 19.9537C25.5 6.92593 35 6.66667 40 6.66667C43.3333 6.66667 45 6.66667 45 6.66667V1.46296C45 0.657407 44.3426 0 43.537 0Z" fill="white"/>
</svg>
